# xmcd
#
# Track frame offsets: 
#        150
#        9292
#        17675
#        22680
#        34685
#        47097
#        58042
#        69320
#        79650
#        99832
#        114912
#        125380
#        135375
#        146232
#        157195
#        168362
#        187550
#        198017
#        208957
#        218855
#
# Disc length: 3130 seconds
#
# Revision: 2
# Processed by: cddbd v1.5.1PL0 Copyright (c) Steve Scherf et al.
# Submitted via: ExactAudioCopy v0.95b3
#
DISCID=fc0c3814
DTITLE=Various Artist - Cowboy Country
DYEAR=1995
DGENRE=Country
TTITLE0=Frakie Laine - Rawhide
TTITLE1=Glen Campbell - Wichita Lineman
TTITLE2=Glen Campbell - Galveston
TTITLE3=Waylon Jennings - Don't Think Twice It's All Right
TTITLE4=Faron Young - Country Girl
TTITLE5=Faron Young - You're Still Mine
TTITLE6=Hank Locklin - Send Me The Pillow That You Dream On
TTITLE7=Hank Locklin - These Arms You Push Away
TTITLE8=Bill Andreson - I Wonder If God Likes Country Music
TTITLE9=Bill Andreson - Deck Of Cards
TTITLE10=Frankie Miller - Poppin Johnny
TTITLE11=Frankie Miller - Big Talk Of The Town
TTITLE12=George Jones - Tender Years
TTITLE13=George Jones - My Favourite Lies
TTITLE14=Bobby Bare - That's How I Got To Memphis
TTITLE15=Bobby Bare - Me And Bobby McGee
TTITLE16=Cash McCall - Twilight On The Trail
TTITLE17=Cash McCall - Red River Valley
TTITLE18=Cowboy Copas - A Thousand Miles Of Ocean
TTITLE19=Cowboy Copas - I Dreamed Of A Hill-Billy Heaven
EXTD=
EXTT0=
EXTT1=
EXTT2=
EXTT3=
EXTT4=
EXTT5=
EXTT6=
EXTT7=
EXTT8=
EXTT9=
EXTT10=
EXTT11=
EXTT12=
EXTT13=
EXTT14=
EXTT15=
EXTT16=
EXTT17=
EXTT18=
EXTT19=
PLAYORDER=
